<svg width="15" height="20" viewBox="0 0 15 20" fill="none" xmlns="http://www.w3.org/2000/svg">
<path d="M7.38151 8.32895C9.47438 8.32895 11.171 6.63234 11.171 4.53947C11.171 2.44661 9.47438 0.75 7.38151 0.75C5.28865 0.75 3.59204 2.44661 3.59204 4.53947C3.59204 6.63234 5.28865 8.32895 7.38151 8.32895Z" stroke="black" stroke-width="1.5"/>
<path d="M4.43526 18.3559C5.32105 18.6079 6.32242 18.75 7.38158 18.75C11.0441 18.75 14.0132 17.0542 14.0132 14.9605C14.0132 12.8668 11.0441 11.171 7.38158 11.171C3.71905 11.171 0.75 12.8668 0.75 14.9605C0.75 15.2873 0.822947 15.6047 0.958421 15.9079" stroke="black" stroke-width="1.5" stroke-linecap="round"/>
</svg>
